<svg id="activeFEMObject" xmlns="http://www.w3.org/2000/svg" viewBox="0 0 53.09 58"><title>activeFEMObject</title><path id="object" d="M19.13,13l12.6-3.48.22,4.27Zm25-.17L31.73,9.54l.22,4.27Zm0,0-12.14,1L42,27.07ZM56.46,34.27,44.09,12.86,42,27.07ZM44.09,12.86,56.46,34.27,53.14,21.91Zm-12.14,1L21.86,27.07H42ZM19.13,13l2.73,14L31.95,13.82ZM42,27.07,31.73,43.21l15.33-1Zm-20.17,0,9.87,16.14L42,27.07ZM10.31,21.91,7,34.27,19.13,13ZM19.13,13,7,34.27l14.86-7.2Zm12.6,30.18L21.86,27.07l-6.2,15.27Zm21.41,3.43,3.31-12.36-9.4,8ZM42,27.07l5,15.18,9.4-8ZM19.36,55.69,31.73,43.21l-16.06-.86Zm33.78-9.05-6.09-4.38-3,13.43ZM31.73,59l12.36-3.31H19.36ZM15.67,42.35,7,34.27,10.33,47Zm6.2-15.27L7,34.27l8.67,8.07Zm-6.2,15.27L10.33,47l9,8.73Zm16.06.86L19.36,55.69H44.09Zm0,0L44.09,55.69l3-13.43Z" transform="translate(-6 -2)" style="fill:#5affbe;stroke:#3a3a3a;stroke-linecap:square;stroke-linejoin:round;stroke-width:2px"/><g id="plus"><polygon points="35 25 35 17 27 17 27 11 35 11 35 3 41 3 41 11 49 11 49 17 41 17 41 25 35 25" style="fill:#bdbdbd"/><path d="M46,6v8h8v4H46v8H42V18H34V14h8V6h4m2-2H40v8H32v8h8v8h8V20h8V12H48V4Z" transform="translate(-6 -2)" style="fill:#3a3a3a"/></g><path d="M44.09,31a14,14,0,1,1,14-14A14,14,0,0,1,44.09,31Z" transform="translate(-6 -2)" style="fill:#bdbdbd"/><path d="M44.09,4a13,13,0,1,1-13,13,13,13,0,0,1,13-13m0-2a15,15,0,1,0,15,15,15,15,0,0,0-15-15Z" transform="translate(-6 -2)" style="fill:#3a3a3a"/><path id="symbol" d="M53.11,25H49.16L47.59,20.9H40.41L38.92,25H35.07l7-18h3.84Zm-6.68-7.11-2.48-6.67-2.43,6.67Z" transform="translate(-6 -2)" style="fill:#3a3a3a"/></svg>