<svg id="deleteFEMSystem" xmlns="http://www.w3.org/2000/svg" viewBox="0 0 55.51 58.43"><title>deleteFEMSystem</title><path id="greySpheres" d="M33,8a3,3,0,1,1-3-3A3,3,0,0,1,33,8Zm-3,7a3,3,0,1,0,3,3A3,3,0,0,0,30,15Zm10-4.89a3,3,0,1,0,3,3A3,3,0,0,0,40,10.15Zm-20,0a3,3,0,1,0,3,3A3,3,0,0,0,20,10.15ZM43,35.49a3,3,0,1,1-3-3A3,3,0,0,1,43,35.49ZM53,22.6a3,3,0,1,1-3-3A3,3,0,0,1,53,22.6Z" transform="translate(-5.07 -4.05)" style="fill:#bdbdbd;stroke:#3a3a3a;stroke-miterlimit:10;stroke-width:2px"/><path id="greenSpheres" d="M34.07,52.56a4,4,0,1,1-4-4A4,4,0,0,1,34.07,52.56Zm-4-15a4,4,0,1,0,4,4A4,4,0,0,0,30.07,37.56Zm0-11a4,4,0,1,0,4,4A4,4,0,0,0,30.07,26.56Zm-6.5,21a3.5,3.5,0,1,1-3.5-3.5A3.5,3.5,0,0,1,23.57,47.56Zm-3.5-15a4,4,0,1,0,4,4A4,4,0,0,0,20.07,32.56Zm0-11a4,4,0,1,0,4,4A4,4,0,0,0,20.07,21.56Zm-7,21.5a3,3,0,1,1-3-3A3,3,0,0,1,13.07,43.06Zm-3-14.5a3.5,3.5,0,1,0,3.5,3.5A3.5,3.5,0,0,0,10.07,28.56Zm0-11.5a4,4,0,1,0,4,4A4,4,0,0,0,10.07,17.06Z" transform="translate(-5.07 -4.05)" style="fill:#5affbe;stroke:#3a3a3a;stroke-miterlimit:10;stroke-width:2px"/><polygon id="delete" points="54.1 53.15 47.97 47.02 54.1 40.89 50.23 37.02 44.1 43.15 37.97 37.02 34.1 40.89 40.23 47.02 34.1 53.15 37.97 57.02 44.1 50.89 50.23 57.02 54.1 53.15" style="fill:#bdbdbd;stroke:#3a3a3a;stroke-miterlimit:10;stroke-width:2px"/></svg>