<svg id="exportFEMCache" xmlns="http://www.w3.org/2000/svg" viewBox="0 0 61.68 47.69"><title>exportFEMCache</title><g id="greenRectangle"><rect x="1" y="12.19" width="57" height="34.5" style="fill:#5affbe"/><path d="M59.5,14.92v32.5H4.5V14.92h55m2-2H2.5v36.5h59V12.92Z" transform="translate(-2.5 -1.73)" style="fill:#3a3a3a"/></g><g id="greyRectangle"><rect x="5.5" y="21.69" width="48" height="15.5" style="fill:#bdbdbd"/><path d="M55,24.42v13.5H9V24.42H55m2-2H7v17.5H57V22.42Z" transform="translate(-2.5 -1.73)" style="fill:#3a3a3a"/></g><g id="topLine"><line x1="4.5" y1="16.94" x2="26.67" y2="16.94" style="fill:none;stroke:#3a3a3a;stroke-miterlimit:10;stroke-width:2px;stroke-dasharray:5.5,2"/></g><g id="bottomLine"><line x1="4.5" y1="41.94" x2="54.5" y2="41.94" style="fill:none;stroke:#3a3a3a;stroke-miterlimit:10;stroke-width:2px;stroke-dasharray:5.5,2"/></g><g id="square"><rect x="21.75" y="21.69" width="15.5" height="15.5" style="fill:#bdbdbd"/><path d="M38.75,24.42v13.5H25.25V24.42h13.5m2-2H23.25v17.5h17.5V22.42Z" transform="translate(-2.5 -1.73)" style="fill:#3a3a3a"/></g><g id="arrow"><polygon points="41.02 24.54 41.02 17.11 31.56 17.11 45.5 1.5 59.44 17.11 49.98 17.11 49.98 24.54 41.02 24.54" style="fill:#bdbdbd"/><path d="M48,4.73,59.71,17.84H51.48v7.43h-7V17.84H36.29L48,4.73m0-3L46.51,3.4,34.8,16.51l-3,3.33h10.7v7.43h11V19.84h10.7l-3-3.33L49.49,3.4,48,1.73Z" transform="translate(-2.5 -1.73)" style="fill:#3a3a3a"/></g></svg>