<svg id="femSolver" xmlns="http://www.w3.org/2000/svg" viewBox="0 0 48.93 53.52"><title>femSolver</title><path id="greySpheres" d="M35,9a3,3,0,1,1-3-3A3,3,0,0,1,35,9Zm-3,7a3,3,0,1,0,3,3A3,3,0,0,0,32,16Zm10-4.89a3,3,0,1,0,3,3A3,3,0,0,0,42,11.15Zm-20,0a3,3,0,1,0,3,3A3,3,0,0,0,22,11.15ZM45,36.49a3,3,0,1,1-3-3A3,3,0,0,1,45,36.49Zm-3,7a3,3,0,1,0,3,3A3,3,0,0,0,42,43.49ZM52,38.6a3,3,0,1,0,3,3A3,3,0,0,0,52,38.6Zm3-15a3,3,0,1,1-3-3A3,3,0,0,1,55,23.6Z" transform="translate(-7.07 -5.05)" style="fill:#bdbdbd;stroke:#3a3a3a;stroke-miterlimit:10;stroke-width:2px"/><path id="greenSpheres" d="M36.07,53.56a4,4,0,1,1-4-4A4,4,0,0,1,36.07,53.56Zm-4-15a4,4,0,1,0,4,4A4,4,0,0,0,32.07,38.56Zm0-11a4,4,0,1,0,4,4A4,4,0,0,0,32.07,27.56Zm-6.5,21a3.5,3.5,0,1,1-3.5-3.5A3.5,3.5,0,0,1,25.57,48.56Zm-3.5-15a4,4,0,1,0,4,4A4,4,0,0,0,22.07,33.56Zm0-11a4,4,0,1,0,4,4A4,4,0,0,0,22.07,22.56Zm-7,21.5a3,3,0,1,1-3-3A3,3,0,0,1,15.07,44.06Zm-3-14.5a3.5,3.5,0,1,0,3.5,3.5A3.5,3.5,0,0,0,12.07,29.56Zm0-11.5a4,4,0,1,0,4,4A4,4,0,0,0,12.07,18.06Z" transform="translate(-7.07 -5.05)" style="fill:#5affbe;stroke:#3a3a3a;stroke-miterlimit:10;stroke-width:2px"/></svg>