<svg id="importFEMCache" xmlns="http://www.w3.org/2000/svg" viewBox="0 0 61.48 47.82"><title>importFEMCache</title><g id="greenRectangle"><rect x="1" y="1" width="57" height="34.5" style="fill:#5affbe"/><path d="M59.5,14.75v32.5H4.5V14.75h55m2-2H2.5v36.5h59V12.75Z" transform="translate(-2.5 -12.75)" style="fill:#3a3a3a"/></g><g id="greyRectangle"><rect x="5.5" y="10.5" width="48" height="15.5" style="fill:#bdbdbd"/><path d="M55,24.25v13.5H9V24.25H55m2-2H7v17.5H57V22.25Z" transform="translate(-2.5 -12.75)" style="fill:#3a3a3a"/></g><g id="topLine"><line x1="4.5" y1="5.75" x2="54.5" y2="5.75" style="fill:none;stroke:#3a3a3a;stroke-miterlimit:10;stroke-width:2px;stroke-dasharray:5.5,2"/></g><g id="bottomLine"><line x1="4.5" y1="30.75" x2="26.46" y2="30.75" style="fill:none;stroke:#3a3a3a;stroke-miterlimit:10;stroke-width:2px;stroke-dasharray:5.5,2"/></g><g id="square"><rect x="21.75" y="10.5" width="15.5" height="15.5" style="fill:#bdbdbd"/><path d="M38.75,24.25v13.5H25.25V24.25h13.5m2-2H23.25v17.5h17.5V22.25Z" transform="translate(-2.5 -12.75)" style="fill:#3a3a3a"/></g><g id="arrow"><polygon points="31.36 30.71 40.82 30.71 40.82 23.28 49.78 23.28 49.78 30.71 59.24 30.71 45.3 46.32 31.36 30.71" style="fill:#bdbdbd"/><path d="M51.28,37v7.43h8.23L47.8,57.57,36.09,44.46h8.23V37h7m2-2h-11v7.43H31.62l3,3.33L46.31,58.9l1.49,1.67,1.49-1.67L61,45.79l3-3.33H53.28V35Z" transform="translate(-2.5 -12.75)" style="fill:#3a3a3a"/></g></svg>